<svg xmlns="http://www.w3.org/2000/svg" width="958.334" height="240" viewBox="0 0 958.334 240"><path d="M232.787 118.614c-1.15-46.02-38.862-82.922-85.138-82.922-46.319 0-83.988 36.901-85.138 82.922-.085.767-.085 1.534-.085 2.3 0 .299 0 .597.042.896.426 46.617 38.393 84.328 85.18 84.328 46.746 0 84.755-37.711 85.181-84.328.043-.299.043-.597.043-.895 0-.767 0-1.534-.085-2.301zm-85.138 67.156c-35.538 0-64.429-28.593-64.855-63.96-.042-.299-.042-.597-.042-.895 0-.767 0-1.534.042-2.301 1.236-34.771 29.786-62.597 64.855-62.597s63.576 27.826 64.812 62.597c.043.767.043 1.534.043 2.3 0 .299 0 .597-.043.896-.426 35.367-29.274 63.96-64.812 63.96z" fill="#f9460c"/><path d="M452.96 118.614c-1.15-46.02-38.819-82.922-85.137-82.922-46.276 0-83.988 36.901-85.138 82.922-.085.767-.085 1.534-.085 2.3 0 .299 0 .597.042.896.427 46.617 38.436 84.328 85.18 84.328 46.788 0 84.755-37.711 85.181-84.328.043-.299.043-.597.043-.895 0-.767 0-1.534-.085-2.301zm-8.522 3.196c-.468 41.844-34.6 75.678-76.615 75.678-41.973 0-76.104-33.834-76.573-75.678v-.895c0-.767 0-1.534.043-2.301 1.193-41.248 35.026-74.315 76.53-74.315 41.546 0 75.38 33.067 76.573 74.315.042.767.042 1.534.042 2.3v.896z" fill="#45a856"/><path d="M444.396 118.614c-1.193-41.248-35.027-74.315-76.573-74.315-41.504 0-75.337 33.067-76.53 74.315-.043.767-.043 1.534-.043 2.3v.896c.469 41.844 34.6 75.678 76.573 75.678 42.015 0 76.147-33.834 76.615-75.678v-.895c0-.767 0-1.534-.042-2.301zm-8.565 3.196c-.426 37.114-30.723 67.113-68.008 67.113-37.243 0-67.54-29.999-67.966-67.113-.042-.299-.042-.597-.042-.895 0-.767 0-1.534.042-2.301 1.193-36.518 31.192-65.75 67.966-65.75 36.816 0 66.815 29.232 68.008 65.75.042.767.042 1.534.042 2.3 0 .299 0 .597-.042.896z" fill="#dbf9df"/><path d="M435.83 118.614c-1.192-36.518-31.19-65.75-68.007-65.75-36.774 0-66.773 29.232-67.966 65.75-.042.767-.042 1.534-.042 2.3 0 .299 0 .597.042.896.426 37.114 30.723 67.113 67.966 67.113 37.285 0 67.582-29.999 68.008-67.113.042-.299.042-.597.042-.895 0-.767 0-1.534-.042-2.301zm-20.879 26.59c0 7.797-1.491 13.038-4.517 15.723-3.025 2.727-8.48 4.048-16.362 4.048h-51.73c-8.566 0-14.19-1.491-16.875-4.517-2.727-3.025-4.048-8.863-4.048-17.513l17.172-3.58v9.886h59.188V130.12h-52.2c-7.925 0-13.337-1.364-16.32-4.048-1.15-1.023-2.088-2.472-2.77-4.261-.383-.938-.681-2.003-.937-3.196-.469-2.301-.724-5.071-.724-8.267V101.1c0-7.798 1.448-13.039 4.431-15.723 2.983-2.727 8.395-4.048 16.32-4.048h47.513c7.968 0 13.465 1.363 16.362 4.133 2.94 2.727 4.39 8.054 4.39 15.98l-17.216 4.047v-9.587H341.83v18.025h52.242c7.883 0 13.337 1.32 16.362 4.047.214.214.427.384.597.64.81.852 1.491 1.917 2.045 3.196 1.236 2.897 1.875 6.86 1.875 11.888v11.505z" fill="#6fc072"/><path d="M414.951 133.698v11.505c0 7.798-1.491 13.04-4.517 15.724-3.025 2.727-8.48 4.048-16.362 4.048h-51.73c-8.566 0-14.19-1.491-16.875-4.517-2.727-3.025-4.048-8.863-4.048-17.513l17.172-3.58v9.886h59.188V130.12h-52.2c-7.925 0-13.337-1.364-16.32-4.048-1.15-1.023-2.088-2.472-2.77-4.261-.383-.938-.681-2.003-.937-3.196-.469-2.301-.724-5.071-.724-8.267V101.1c0-7.798 1.448-13.039 4.431-15.723 2.983-2.727 8.395-4.048 16.32-4.048h47.513c7.968 0 13.465 1.363 16.362 4.133 2.94 2.727 4.39 8.054 4.39 15.98l-17.216 4.047v-9.587H341.83v18.025h52.242c7.883 0 13.337 1.32 16.362 4.047.214.214.427.384.597.64.81.852 1.491 1.917 2.045 3.196 1.236 2.897 1.875 6.86 1.875 11.888z" opacity=".41" fill="#fff"/><path d="M900.808 118.614c-1.15-46.02-38.819-82.922-85.138-82.922-46.276 0-83.987 36.901-85.138 82.922-.085.767-.085 1.534-.085 2.3 0 .299 0 .597.043.896.426 46.617 38.435 84.328 85.18 84.328 46.788 0 84.755-37.711 85.18-84.328.043-.299.043-.597.043-.895 0-.767 0-1.534-.085-2.301zm-8.565 3.196c-.469 41.844-34.558 75.678-76.573 75.678-41.972 0-76.104-33.834-76.573-75.678v-.895c0-.767 0-1.534.043-2.301 1.193-41.248 35.027-74.315 76.53-74.315 41.547 0 75.337 33.067 76.53 74.315.043.767.043 1.534.043 2.3v.896z" fill="#e9e7dd"/><path d="M892.2 118.614c-1.193-41.248-34.983-74.315-76.53-74.315-41.503 0-75.337 33.067-76.53 74.315-.043.767-.043 1.534-.043 2.3v.896c.47 41.844 34.6 75.678 76.573 75.678 42.015 0 76.104-33.834 76.573-75.678v-.895c0-.767 0-1.534-.043-2.301zm-8.522 3.196c-.426 37.114-30.723 67.113-68.008 67.113s-67.582-29.999-68.008-67.113c-.042-.299-.042-.597-.042-.895 0-.767 0-1.534.042-2.301 1.193-36.518 31.192-65.75 68.008-65.75 36.817 0 66.815 29.232 68.008 65.75.043.767.043 1.534.043 2.3 0 .299 0 .597-.043.896z" fill="#928f63"/><path d="M883.678 118.614c-1.193-36.518-31.191-65.75-68.008-65.75-36.816 0-66.815 29.232-68.008 65.75-.042.767-.042 1.534-.042 2.3 0 .299 0 .597.042.896.426 37.114 30.723 67.113 68.008 67.113s67.582-29.999 68.008-67.113c.043-.299.043-.597.043-.895 0-.767 0-1.534-.043-2.301zm-50.196 0l-3.026 3.196-4.942 5.24v37.925h-19.602V127.52l-5.369-5.71-3.025-3.196-35.07-37.285h25.95l28.679 32.086 28.89-32.086h22.84l-35.325 37.285z" fill="#ada67b"/><path d="M212.504 120.915c0 .298 0 .596-.043.895-.426 35.367-29.274 63.96-64.812 63.96s-64.429-28.593-64.855-63.96c-.042-.299-.042-.597-.042-.895 0-.767 0-1.534.042-2.301 1.236-34.771 29.786-62.597 64.855-62.597s63.576 27.826 64.812 62.597c.043.767.043 1.534.043 2.3z" fill="#fb6e36"/><path d="M678.972 118.614c-1.15-46.02-38.861-82.922-85.137-82.922-46.32 0-83.988 36.901-85.139 82.922-.085.767-.085 1.534-.085 2.3 0 .299 0 .597.043.896.426 46.617 38.393 84.328 85.18 84.328 46.745 0 84.755-37.711 85.181-84.328.043-.299.043-.597.043-.895 0-.767 0-1.534-.086-2.301zm-4.9 3.196c-.469 43.847-36.22 79.3-80.237 79.3-44.018 0-79.77-35.453-80.238-79.3v-.895c0-.767 0-1.534.043-2.301 1.193-43.251 36.645-77.937 80.195-77.937 43.548 0 79.001 34.686 80.194 77.937.043.767.043 1.534.043 2.3v.896z" fill="#088ed4"/><path d="M674.03 118.614c-1.194-43.251-36.647-77.937-80.195-77.937-43.55 0-79.002 34.686-80.195 77.937-.043.767-.043 1.534-.043 2.3v.896c.469 43.847 36.22 79.3 80.238 79.3 44.017 0 79.768-35.453 80.237-79.3v-.895c0-.767 0-1.534-.043-2.301zm-34.644-22.371H600.78v68.732h-19.43V96.243h-38.436V81.329h96.472v14.914z" fill="#00aee2"/><path d="M260.574 118.614V0h-3.195v118.614h-24.592c.085.767.085 1.534.085 2.3 0 .299 0 .597-.043.896h24.55V240h3.195V121.81h22.068c-.042-.299-.042-.597-.042-.895 0-.767 0-1.534.085-2.301h-22.11zM0 118.614v3.196h62.468c-.042-.299-.042-.597-.042-.895 0-.767 0-1.534.085-2.301H0zm706.346 0V0h-3.196v118.614h-24.178c.086.767.086 1.534.086 2.3 0 .299 0 .597-.043.896h24.135V240h3.196V121.81h24.144c-.043-.299-.043-.597-.043-.895 0-.767 0-1.534.085-2.301h-24.186zm194.462 0c.085.767.085 1.534.085 2.3 0 .299 0 .597-.042.896h57.483v-3.196h-57.526zm-418.379 0V0h-3.196v118.614h-26.272c.085.767.085 1.534.085 2.3 0 .299 0 .597-.043.896h26.23V240h3.196V121.81h26.225c-.043-.299-.043-.597-.043-.895 0-.767 0-1.534.085-2.301H482.43z" fill="#c5c1a8"/><path d="M157.776 164.989h-19.46V81.312h19.46v83.677zM639.386 81.329v14.914H600.78v68.732h-19.43V96.243h-38.436V81.329zM868.807 81.329l-35.325 37.285-3.026 3.196-4.942 5.24v37.925h-19.602V127.52l-5.369-5.71-3.025-3.196-35.07-37.285h25.95l28.679 32.086 28.89-32.086z" fill="#fff"/></svg>